<svg width="16" height="13" viewBox="0 0 16 13" fill="none" xmlns="http://www.w3.org/2000/svg">
<path d="M15.6016 6.33594C15.6016 6.0026 15.487 5.72396 15.2578 5.5L10.1719 0.421875C10.0521 0.302083 9.92448 0.213542 9.78906 0.15625C9.65365 0.09375 9.51562 0.0625 9.375 0.0625C9.04167 0.0625 8.77344 0.166667 8.57031 0.375C8.36719 0.578125 8.26562 0.830729 8.26562 1.13281C8.26562 1.30469 8.29688 1.45833 8.35938 1.59375C8.42708 1.72396 8.51302 1.84115 8.61719 1.94531L10.3672 3.70312L12.9531 6.07812L13.4297 5.36719L10.3984 5.20312H1.5625C1.21354 5.20312 0.929688 5.30729 0.710938 5.51562C0.497396 5.72396 0.390625 5.9974 0.390625 6.33594C0.390625 6.67448 0.497396 6.94792 0.710938 7.15625C0.929688 7.36458 1.21354 7.46875 1.5625 7.46875H10.3984L13.4297 7.30469L12.9531 6.59375L10.3672 8.96875L8.61719 10.7188C8.51302 10.8229 8.42708 10.9427 8.35938 11.0781C8.29688 11.2083 8.26562 11.3594 8.26562 11.5312C8.26562 11.8333 8.36719 12.0859 8.57031 12.2891C8.77344 12.4974 9.04167 12.6016 9.375 12.6016C9.66667 12.6016 9.92969 12.4844 10.1641 12.25L15.2578 7.17188C15.487 6.94271 15.6016 6.66406 15.6016 6.33594Z" fill="white"/>
</svg>
